# xmcd CD database file
#
# Track frame offsets:
#	150
#	14292
#	27728
#	40203
#	55554
#	69403
#	88002
#	103391
#	116365
#	129645
#	144344
#
# Disc length: 2134 seconds
#
# Revision: 0
# Processed by: cddbd v1.4PL0 Copyright (c) Steve Scherf et al.
# Submitted via: CDex 1.50
#
DISCID=9408540b
DTITLE=Irvin Blais - La route des Baleines
DYEAR=2003
DGENRE=Country
TTITLE0=Le Quel t'app'lé chéri hier souère
TTITLE1=Combien de fois
TTITLE2=L'École
TTITLE3=Mes deux enfants
TTITLE4=Chu Ben soul
TTITLE5=Les Pêcheurs
TTITLE6=Un jour je t'ai aimé
TTITLE7=Y'm reste Trente Sous
TTITLE8=Quand tu dis m'aimer !
TTITLE9=La route des Baleines
TTITLE10=La Drogue
EXTD=YEAR: 2003
EXTT0=
EXTT1=
EXTT2=
EXTT3=
EXTT4=
EXTT5=
EXTT6=
EXTT7=
EXTT8=
EXTT9=
EXTT10=
PLAYORDER=
